<svg xmlns="http://www.w3.org/2000/svg" width="1200" height="630" viewBox="0 0 1200 630" role="img" aria-labelledby="title desc">
  <title id="title">LYCORE LLC lead system preview</title>
  <desc id="desc">Abstract dashboard preview showing calls, forms, CRM, and follow-up workflows for bail bond agencies.</desc>
  <rect width="1200" height="630" fill="#0c0a09"/>
  <circle cx="1030" cy="70" r="260" fill="#123a32" opacity=".55"/>
  <circle cx="140" cy="570" r="230" fill="#1d2435" opacity=".65"/>
  <rect x="86" y="86" width="1028" height="458" rx="34" fill="#171412" stroke="#ffffff" stroke-opacity=".14"/>
  <text x="140" y="190" fill="#fafaf9" font-family="Arial, sans-serif" font-size="50" font-weight="700">LYCORE LLC</text>
  <text x="140" y="250" fill="#d6d3d1" font-family="Arial, sans-serif" font-size="30">Lead systems for bail bond agencies</text>
  <g fill="none" stroke="#fafaf9" stroke-opacity=".75" stroke-width="4">
    <path d="M160 344h170l65-62 78 100 73-76h156"/>
    <path d="M735 205h205M735 278h260M735 351h190M735 424h230"/>
  </g>
  <g fill="#fafaf9">
    <circle cx="160" cy="344" r="9"/>
    <circle cx="395" cy="282" r="9"/>
    <circle cx="473" cy="382" r="9"/>
    <circle cx="546" cy="306" r="9"/>
  </g>
  <rect x="140" y="420" width="338" height="54" rx="27" fill="#fafaf9"/>
  <text x="172" y="455" fill="#0c0a09" font-family="Arial, sans-serif" font-size="18" font-weight="700">Free Lead System Audit</text>
</svg>
